<svg xmlns="http://www.w3.org/2000/svg" width="210" height="210" viewBox="0 0 210 210" xmlns:xlink="http://www.w3.org/1999/xlink">
  <defs>
    <polygon id="a" points="0 162.209 153.5 162.209 153.5 0 0 0"/>
  </defs>
  <g fill="none" fill-rule="evenodd">
    <g transform="translate(28 24)">
      <path fill="#F9F9F9" d="M132.6906,146.0881 L109.2056,146.0881 L95.9766,130.9041 C88.8126,122.6821 90.3796,110.0091 99.3276,103.8071 L109.2056,96.9601 L109.2056,87.5961 L132.6906,87.5961 L132.6906,96.9601 L142.5686,103.8071 C151.5166,110.0091 153.0836,122.6821 145.9196,130.9041 L132.6906,146.0881 Z"/>
      <path stroke="#D5DBED" stroke-width="2" d="M132.6906,146.0881 L109.2056,146.0881 L95.9766,130.9041 C88.8126,122.6821 90.3796,110.0091 99.3276,103.8071 L109.2056,96.9601 L109.2056,87.5961 L132.6906,87.5961 L132.6906,96.9601 L142.5686,103.8071 C151.5166,110.0091 153.0836,122.6821 145.9196,130.9041 L132.6906,146.0881 Z" stroke-linecap="round" stroke-linejoin="round"/>
      <path fill="#F9F9F9" d="M132.6759,92.6608 L109.2199,92.6608 C106.8539,92.6608 104.9359,90.7428 104.9359,88.3768 L104.9359,88.3478 C104.9359,85.9818 106.8539,84.0628 109.2199,84.0628 L132.6759,84.0628 C135.0419,84.0628 136.9609,85.9818 136.9609,88.3478 L136.9609,88.3768 C136.9609,90.7428 135.0419,92.6608 132.6759,92.6608"/>
      <path stroke="#D5DBED" stroke-width="2" d="M132.6759 92.6608L109.2199 92.6608C106.8539 92.6608 104.9359 90.7428 104.9359 88.3768L104.9359 88.3478C104.9359 85.9818 106.8539 84.0628 109.2199 84.0628L132.6759 84.0628C135.0419 84.0628 136.9609 85.9818 136.9609 88.3478L136.9609 88.3768C136.9609 90.7428 135.0419 92.6608 132.6759 92.6608zM91.5865 116.842L106.3785 109.765C108.8405 108.586 111.7905 109.467 113.2175 111.806L116.2295 116.745C118.3535 120.226 123.4045 120.144 125.4145 116.595L128.1095 111.837C129.4485 109.473 132.3315 108.489 134.8215 109.548L150.2095 116.087" stroke-linecap="round" stroke-linejoin="round"/>
      <path fill="#F9F9F9" d="M64.4781,146.0881 L40.9931,146.0881 L27.7641,130.9041 C20.6001,122.6821 22.1671,110.0091 31.1151,103.8071 L40.9931,96.9601 L40.9931,87.5961 L64.4781,87.5961 L64.4781,96.9601 L74.3561,103.8071 C83.3041,110.0091 84.8711,122.6821 77.7071,130.9041 L64.4781,146.0881 Z"/>
      <path stroke="#D5DBED" stroke-width="2" d="M71.0729,138.5187 L64.4779,146.0877 L40.9929,146.0877 L27.7639,130.9037 C20.5999,122.6827 22.1679,110.0097 31.1149,103.8077 L40.9929,96.9597 L40.9929,87.5957 L64.4779,87.5957 L64.4779,96.9597 L74.3569,103.8077 C83.3039,110.0097 84.8709,122.6827 77.7079,130.9037" stroke-linecap="round" stroke-linejoin="round"/>
      <path fill="#F9F9F9" d="M64.4635,92.6608 L41.0075,92.6608 C38.6415,92.6608 36.7235,90.7428 36.7235,88.3768 L36.7235,88.3478 C36.7235,85.9818 38.6415,84.0628 41.0075,84.0628 L64.4635,84.0628 C66.8295,84.0628 68.7475,85.9818 68.7475,88.3478 L68.7475,88.3768 C68.7475,90.7428 66.8295,92.6608 64.4635,92.6608"/>
      <path stroke="#D5DBED" stroke-width="2" d="M64.4635 92.6608L41.0075 92.6608C38.6415 92.6608 36.7235 90.7428 36.7235 88.3768L36.7235 88.3478C36.7235 85.9818 38.6415 84.0628 41.0075 84.0628L64.4635 84.0628C66.8295 84.0628 68.7475 85.9818 68.7475 88.3478L68.7475 88.3768C68.7475 90.7428 66.8295 92.6608 64.4635 92.6608zM23.3741 116.842L38.1661 109.765C40.6281 108.586 43.5781 109.467 45.0051 111.806L48.0171 116.745C50.1401 120.226 55.1921 120.144 57.2021 116.595L59.8971 111.837C61.2361 109.473 64.1191 108.489 66.6091 109.548L81.9971 116.087" stroke-linecap="round" stroke-linejoin="round"/>
      <path fill="#F9F9F9" d="M45.5109,146.0881 L22.0269,146.0881 L8.7969,130.9041 C1.6339,122.6821 3.2009,110.0091 12.1479,103.8071 L22.0269,96.9601 L22.0269,87.5961 L45.5109,87.5961 L45.5109,96.9601 L55.3899,103.8071 C64.3369,110.0091 65.9039,122.6821 58.7409,130.9041 L45.5109,146.0881 Z"/>
      <path stroke="#D5DBED" stroke-width="2" d="M45.5109,146.0881 L22.0269,146.0881 L8.7969,130.9041 C1.6339,122.6821 3.2009,110.0091 12.1479,103.8071 L22.0269,96.9601 L22.0269,87.5961 L45.5109,87.5961 L45.5109,96.9601 L55.3899,103.8071 C64.3369,110.0091 65.9039,122.6821 58.7409,130.9041 L45.5109,146.0881 Z" stroke-linecap="round" stroke-linejoin="round"/>
      <path fill="#F9F9F9" d="M45.4967,92.6608 L22.0407,92.6608 C19.6747,92.6608 17.7567,90.7428 17.7567,88.3768 L17.7567,88.3478 C17.7567,85.9818 19.6747,84.0628 22.0407,84.0628 L45.4967,84.0628 C47.8627,84.0628 49.7807,85.9818 49.7807,88.3478 L49.7807,88.3768 C49.7807,90.7428 47.8627,92.6608 45.4967,92.6608"/>
      <path stroke="#D5DBED" stroke-width="2" d="M26.0802 92.6608L22.0262 92.6608C19.6682 92.6608 17.7562 90.7368 17.7562 88.3618 17.7562 85.9878 19.6682 84.0628 22.0262 84.0628L45.5112 84.0628C47.8692 84.0628 49.7812 85.9878 49.7812 88.3618 49.7812 90.7368 47.8692 92.6608 45.5112 92.6608L33.7192 92.6608M4.4069 116.842L19.1989 109.765C21.6619 108.586 24.6109 109.467 26.0379 111.806L29.0509 116.745C31.1739 120.226 36.2259 120.144 38.2359 116.595L40.9299 111.837C42.2699 109.473 45.1529 108.489 47.6429 109.548L63.0309 116.087" stroke-linecap="round" stroke-linejoin="round"/>
      <path fill="#F9F9F9" d="M107.5997,146.0881 L84.1157,146.0881 L70.8857,130.9041 C63.7227,122.6821 65.2897,110.0091 74.2367,103.8071 L84.1157,96.9601 L84.1157,87.5961 L107.5997,87.5961 L107.5997,96.9601 L117.4787,103.8071 C126.4257,110.0091 127.9927,122.6821 120.8297,130.9041 L107.5997,146.0881 Z"/>
      <path stroke="#D5DBED" stroke-width="2" d="M107.5997,146.0881 L84.1157,146.0881 L70.8857,130.9041 C63.7227,122.6821 65.2897,110.0091 74.2367,103.8071 L84.1157,96.9601 L84.1157,87.5961 L107.5997,87.5961 L107.5997,96.9601 L117.4787,103.8071 C126.4257,110.0091 127.9927,122.6821 120.8297,130.9041 L107.5997,146.0881 Z" stroke-linecap="round" stroke-linejoin="round"/>
      <path fill="#D5DBED" d="M95.5055,158.985 C95.5055,160.765 87.3805,162.209 77.3585,162.209 C67.3365,162.209 59.2115,160.765 59.2115,158.985 C59.2115,157.204 67.3365,155.76 77.3585,155.76 C87.3805,155.76 95.5055,157.204 95.5055,158.985"/>
      <path stroke="#D5DBED" stroke-width="2" d="M9.0397,146.0881 L145.6777,146.0881" stroke-linecap="round" stroke-linejoin="round"/>
      <path stroke="#D5DBED" d="M130.4122.5002L129.4182 1.7372M125.4098 5.6682L124.4158 6.9052M130.6168 6.7482L129.5438 5.5632M125.2848 1.8415L124.2118.6575M6.7003 3.5456L5.7063 4.7826M1.6984 8.7136L.7044 9.9506M6.9049 9.7936L5.8319 8.6086M1.5729 4.8874L.4999 3.7024M19.8302 10.611L19.8302 15.815M22.4323 13.2131L17.2283 13.2131M125.9103 20.0383L125.9103 25.2413M128.5118 22.6398L123.3088 22.6398M144.4938 6.7307L144.4938 11.9337M147.0953 9.3322L141.8923 9.3322" stroke-linecap="round" stroke-linejoin="round"/>
      <g transform="translate(50 33.209)">
        <path fill="#C9D2F0" d="M15.0035,89.3913 C15.0035,83.8103 20.6075,79.2873 27.5215,79.2873 C34.4345,79.2873 40.0385,83.8103 40.0385,89.3913 L62.2605,65.8183 L32.3645,0.2773 L12.6105,10.5683 L0.1155,81.5113 L15.0035,89.3913"/>
        <path stroke="#1E2126" stroke-width="2" d="M15.0035,89.3913 C15.0035,83.8103 20.6075,79.2873 27.5215,79.2873 C34.4345,79.2873 40.0385,83.8103 40.0385,89.3913 L62.2605,65.8183 L32.3645,0.2773 L12.6105,10.5683 L0.1155,81.5113 L15.0035,89.3913" stroke-linecap="round" stroke-linejoin="round"/>
      </g>
      <path fill="#F3F9FF" d="M88.4425,47.8005 L96.8125,47.8005 C98.1945,47.8005 99.5325,47.3195 100.5825,46.4445 L100.5835,46.4435 C105.8135,42.0835 107.0155,34.6805 103.4215,28.9675 L90.9625,9.1685 C88.0335,4.5135 82.8215,1.6745 77.2065,1.6745 L77.2035,1.6745 C71.5875,1.6745 66.3765,4.5135 63.4475,9.1685 L50.9885,28.9675 C47.3945,34.6805 48.5965,42.0835 53.8265,46.4435 L53.8275,46.4445 C54.8775,47.3195 56.2145,47.8005 57.5975,47.8005 L65.9675,47.8005"/>
      <path fill="#C9D2F0" d="M62.611,43.777 L62.611,43.777 C62.611,33.464 65.603,23.36 71.245,14.624 L71.245,14.624 C72.532,12.631 74.782,11.423 77.203,11.423 L77.207,11.423 C79.628,11.423 81.878,12.631 83.165,14.624 L83.165,14.624 C88.807,23.36 91.799,33.464 91.799,43.777 C91.799,45.999 89.945,47.8 87.658,47.8 L66.752,47.8 C64.465,47.8 62.611,45.999 62.611,43.777"/>
      <path fill="#F3F9FF" d="M77.5118 48.7751L86.7318 130.5791C87.1098 134.1321 91.1638 136.0951 94.3118 134.2511L120.9288 118.6521C122.8278 117.5401 123.7488 115.3511 123.1998 113.2631 114.9168 81.7671 93.0628 48.7751 93.0628 48.7751M61.6534 48.7751C61.6534 48.7751 39.7994 81.7671 31.5164 113.2631 30.9674 115.3511 31.8884 117.5401 33.7884 118.6521L60.4044 134.2511C63.5524 136.0951 67.6074 134.1321 67.9854 130.5791L77.2044 48.7751"/>
      <path fill="#F97373" d="M95.257 52.6906C93.883 50.1936 93.063 48.7746 93.063 48.7746L77.512 48.7746 78.236 55.5756C83.968 54.9536 89.587 53.6806 95.257 52.6906M76.485 55.5373L77.205 48.7753 61.654 48.7753C61.654 48.7753 60.64 50.5273 58.974 53.5753 64.82 54.0873 70.614 55.2303 76.485 55.5373M94.3121 134.2507L120.9281 118.6527C122.8251 117.5417 123.7501 115.3567 123.2021 113.2717 121.9781 108.6127 120.4511 103.8177 118.7471 99.0277L118.2861 99.2187 112.4131 102.5127C111.4321 103.0637 110.8271 104.0807 110.8271 105.1817L110.8271 111.9617C110.8271 112.5147 110.5231 113.0247 110.0311 113.3017L108.3501 114.2447C107.2891 114.8397 105.9621 114.0957 105.9621 112.9057L105.9621 111.8557C105.9621 110.6657 104.6361 109.9217 103.5751 110.5167L103.1701 110.7437C102.1891 111.2937 101.5841 112.3117 101.5841 113.4127L101.5841 116.3657C101.5841 117.4667 100.9791 118.4847 99.9981 119.0347L97.3231 120.5357C96.2621 121.1307 94.9361 120.3867 94.9361 119.1967 94.9361 118.0057 93.6101 117.2617 92.5491 117.8567L86.1801 121.4297 85.8191 122.0147 86.7311 130.5787C87.1101 134.1317 91.1641 136.0957 94.3121 134.2507M33.7882 118.6525L60.4042 134.2505C63.5532 136.0955 67.6072 134.1315 67.9852 130.5785L68.8622 122.3445 68.1752 122.1435 64.7572 120.2265C63.7492 119.6605 62.4892 120.3675 62.4892 121.4985L62.4892 123.4495C62.4892 124.5805 61.2292 125.2875 60.2212 124.7225L57.3872 123.1325C56.4052 122.5815 55.8002 121.5645 55.8002 120.4635L55.8002 114.5995C55.8002 113.4975 55.1962 112.4805 54.2142 111.9295L52.3832 110.9025C51.3752 110.3375 50.1152 111.0445 50.1152 112.1745L50.1152 112.1755C50.1152 113.3065 48.8552 114.0135 47.8472 113.4475L43.4802 110.9985C42.8262 110.6315 42.4232 109.9535 42.4232 109.2185L42.4232 106.5025C42.4232 105.7685 42.0202 105.0895 41.3662 104.7225L35.4002 101.3765 35.1452 101.3765C33.7732 105.3815 32.5392 109.3735 31.5152 113.2705 30.9662 115.3555 31.8912 117.5405 33.7882 118.6525"/>
      <path stroke="#1E2126" stroke-width="2" d="M66.7516 47.8005C64.4646 47.8005 62.6106 45.9995 62.6106 43.7775 62.6106 33.4645 65.6036 23.3605 71.2446 14.6245L71.2456 14.6235C72.5316 12.6315 74.7826 11.4225 77.2026 11.4225L77.2076 11.4225C79.6276 11.4225 81.8776 12.6315 83.1646 14.6235L83.1646 14.6245M87.5035 22.7912C90.3275 29.4172 91.7985 36.5462 91.7985 43.7772 91.7985 45.9992 89.9445 47.8002 87.6585 47.8002" stroke-linecap="round" stroke-linejoin="round"/>
      <path stroke="#1E2126" stroke-width="2" d="M91.4425,47.8005 L96.8125,47.8005 C98.1945,47.8005 99.5325,47.3195 100.5825,46.4445 L100.5835,46.4435 C105.8135,42.0835 107.0155,34.6805 103.4215,28.9675 L90.9625,9.1685 C88.0335,4.5135 82.8215,1.6745 77.2065,1.6745 L77.2035,1.6745 C71.5875,1.6745 66.3765,4.5135 63.4475,9.1685 L50.9885,28.9675 C47.3945,34.6805 48.5965,42.0835 53.8265,46.4435 L53.8275,46.4445 C54.8775,47.3195 56.2145,47.8005 57.5975,47.8005 L65.9675,47.8005" stroke-linecap="round" stroke-linejoin="round"/>
      <path fill="#F97373" d="M77.5446 47.8005L77.3446 41.7555 93.2326 38.2845C94.8946 37.9225 96.2366 39.6095 95.4566 41.0795L91.8926 47.8005 77.5446 47.8005zM77.3444 47.8005L77.3444 41.7555 61.4564 38.2845C59.7944 37.9225 58.4524 39.6095 59.2324 41.0795L62.7964 47.8005 77.3444 47.8005z"/>
      <path stroke="#1E2126" stroke-width="2" d="M77.5446,47.8005 L77.3446,41.7555 L93.2326,38.2845 C94.8946,37.9225 96.2366,39.6095 95.4566,41.0795 L91.8926,47.8005 L84.2116,47.8005 L77.3516,47.8005 C77.3516,47.8005 69.6456,57.9965 67.3116,66.7695" stroke-linecap="round" stroke-linejoin="round"/>
      <path stroke="#1E2126" stroke-width="2" d="M77.3444,47.8005 L77.3444,41.7555 L61.4564,38.2845 C59.7944,37.9225 58.4524,39.6095 59.2324,41.0795 L62.7964,47.8005 L77.3444,47.8005 Z" stroke-linecap="round" stroke-linejoin="round"/>
      <polyline stroke="#1E2126" stroke-width="2" points="95.684 53.469 78.172 54.98 59.64 53.469" stroke-linecap="round" stroke-linejoin="round"/>
      <path stroke="#1E2126" stroke-width="2" d="M77.3444 47.8005C77.3444 47.8005 85.0504 57.9965 87.3844 66.7695M62.6364 90.6203C62.6364 90.6203 58.3364 99.3573 51.4094 100.3543M92.0807 90.6203C92.0807 90.6203 96.3807 99.3573 103.3077 100.3543" stroke-linecap="round" stroke-linejoin="round"/>
      <path stroke="#1E2126" stroke-width="2" d="M77.5118 48.7751L86.7318 130.5791C87.1098 134.1321 91.1638 136.0951 94.3118 134.2511L120.9288 118.6521C122.8278 117.5401 123.7488 115.3511 123.1998 113.2631 114.9168 81.7671 93.0628 48.7751 93.0628 48.7751M61.6534 48.7751C61.6534 48.7751 39.7994 81.7671 31.5164 113.2631 30.9674 115.3511 31.8884 117.5401 33.7884 118.6521L60.4044 134.2511C63.5524 136.0951 67.6074 134.1321 67.9854 130.5791L77.2044 48.7751" stroke-linecap="round" stroke-linejoin="round"/>
      <path stroke="#D5DBED" stroke-width="2" d="M26.2355,42.6306 C26.2355,48.8626 21.2165,53.9156 15.0275,53.9156 C8.8365,53.9156 3.8185,48.8626 3.8185,42.6306 C3.8185,36.3986 15.0275,23.8236 15.0275,23.8236 C15.0275,23.8236 26.2355,36.3986 26.2355,42.6306 Z" stroke-linecap="round" stroke-linejoin="round"/>
      <path stroke="#D5DBED" stroke-width="2" d="M15.027,52.4465 C11.79,52.4465 9.155,49.7945 9.155,46.5355 C9.155,44.7515 11.9,40.3105 15.029,36.2875 C18.188,40.3355 20.898,44.7255 20.898,46.5355 C20.898,49.7945 18.264,52.4465 15.027,52.4465 Z" stroke-linecap="round" stroke-linejoin="round"/>
      <mask id="b" fill="white">
        <use xlink:href="#a"/>
      </mask>
      <polygon fill="#F9F9F9" points="2.217 57.309 27.837 57.309 27.837 49.786 2.217 49.786" mask="url(#b)"/>
      <polygon fill="#F9F9F9" points="7.021 61.608 23.033 61.608 23.033 57.309 7.021 57.309" mask="url(#b)"/>
      <path fill="#F9F9F9" d="M15.027,66.9816 L15.027,66.9816 C13.258,66.9816 11.824,65.5476 11.824,63.7786 L11.824,61.6076 L18.229,61.6076 L18.229,63.7786 C18.229,65.5476 16.796,66.9816 15.027,66.9816" mask="url(#b)"/>
      <polyline stroke="#D5DBED" stroke-width="2" points="11.824 57.309 2.217 57.309 2.217 49.786 27.837 49.786 27.837 57.309 17.807 57.309" stroke-linecap="round" stroke-linejoin="round" mask="url(#b)"/>
      <polyline stroke="#D5DBED" stroke-width="2" points="23.033 57.309 23.033 61.608 7.021 61.608 7.021 57.309" stroke-linecap="round" stroke-linejoin="round" mask="url(#b)"/>
      <path stroke="#D5DBED" stroke-width="2" d="M15.027 66.9816L15.027 66.9816C13.258 66.9816 11.824 65.5476 11.824 63.7786L11.824 61.6076 18.229 61.6076 18.229 63.7786C18.229 65.5476 16.796 66.9816 15.027 66.9816zM150.8986 42.6306C150.8986 48.8626 145.8806 53.9156 139.6906 53.9156 133.5006 53.9156 128.4816 48.8626 128.4816 42.6306 128.4816 36.3986 139.6906 23.8236 139.6906 23.8236 139.6906 23.8236 150.8986 36.3986 150.8986 42.6306z" stroke-linecap="round" stroke-linejoin="round" mask="url(#b)"/>
      <path stroke="#D5DBED" stroke-width="2" d="M139.6901,52.4465 C136.4531,52.4465 133.8191,49.7945 133.8191,46.5355 C133.8191,44.7515 136.5641,40.3105 139.6921,36.2875 C142.8521,40.3355 145.5611,44.7255 145.5611,46.5355 C145.5611,49.7945 142.9271,52.4465 139.6901,52.4465 Z" stroke-linecap="round" stroke-linejoin="round" mask="url(#b)"/>
      <polygon fill="#F9F9F9" points="126.88 57.309 152.5 57.309 152.5 49.786 126.88 49.786" mask="url(#b)"/>
      <polygon fill="#F9F9F9" points="131.684 61.608 147.696 61.608 147.696 57.309 131.684 57.309" mask="url(#b)"/>
      <path fill="#F9F9F9" d="M139.6901,66.9816 L139.6901,66.9816 C137.9211,66.9816 136.4881,65.5476 136.4881,63.7786 L136.4881,61.6076 L142.8931,61.6076 L142.8931,63.7786 C142.8931,65.5476 141.4591,66.9816 139.6901,66.9816" mask="url(#b)"/>
      <polyline stroke="#D5DBED" stroke-width="2" points="139.69 57.309 126.88 57.309 126.88 49.786 152.5 49.786 152.5 57.309 145.561 57.309" stroke-linecap="round" stroke-linejoin="round" mask="url(#b)"/>
      <polyline stroke="#D5DBED" stroke-width="2" points="147.696 57.309 147.696 61.608 131.684 61.608 131.684 57.309" stroke-linecap="round" stroke-linejoin="round" mask="url(#b)"/>
      <path stroke="#D5DBED" stroke-width="2" d="M139.6901,66.9816 L139.6901,66.9816 C137.9211,66.9816 136.4881,65.5476 136.4881,63.7786 L136.4881,61.6076 L142.8931,61.6076 L142.8931,63.7786 C142.8931,65.5476 141.4591,66.9816 139.6901,66.9816 Z" stroke-linecap="round" stroke-linejoin="round" mask="url(#b)"/>
    </g>
    <rect width="210" height="210"/>
  </g>
</svg>
