<svg xmlns="http://www.w3.org/2000/svg" width="210" height="210" viewBox="0 0 210 210">
  <g fill="none" fill-rule="evenodd">
    <g transform="translate(14 22)">
      <path fill="#F9F9F9" d="M99.9645,140.9312 L99.9645,100.5702 C99.9645,99.3952 100.5905,98.3102 101.6085,97.7232 L139.4085,75.8992 C140.4255,75.3122 141.6785,75.3122 142.6955,75.8992 L180.4955,97.7232 C181.5125,98.3102 182.1395,99.3952 182.1395,100.5702 L182.1395,140.9312 C182.1395,142.1052 181.5125,143.1902 180.4955,143.7782 L142.6955,165.6012 C141.6785,166.1892 140.4255,166.1892 139.4085,165.6012 L101.6085,143.7782 C100.5905,143.1902 99.9645,142.1052 99.9645,140.9312"/>
      <path stroke="#D5DBED" stroke-width="2" d="M99.9645 140.9312L99.9645 100.5702C99.9645 99.3952 100.5905 98.3102 101.6085 97.7232L139.4085 75.8992C140.4255 75.3122 141.6785 75.3122 142.6955 75.8992L180.4955 97.7232C181.5125 98.3102 182.1395 99.3952 182.1395 100.5702L182.1395 140.9312C182.1395 142.1052 181.5125 143.1902 180.4955 143.7782L142.6955 165.6012C141.6785 166.1892 140.4255 166.1892 139.4085 165.6012L101.6085 143.7782C100.5905 143.1902 99.9645 142.1052 99.9645 140.9312zM154.7565 151.0474L151.2315 153.0824" stroke-linecap="round" stroke-linejoin="round"/>
      <path stroke="#D5DBED" stroke-width="2" d="M146.8805,155.5943 L141.7095,158.5803 C141.5095,158.6953 141.2825,158.7563 141.0515,158.7563 C140.8215,158.7563 140.5935,158.6953 140.3945,158.5803 L107.1955,139.4133 C106.7905,139.1783 106.5385,138.7423 106.5385,138.2743 L106.5385,103.2263 C106.5385,102.7593 106.7905,102.3223 107.1955,102.0883 L140.3945,82.9203 C140.5935,82.8053 140.8215,82.7443 141.0515,82.7443 C141.2825,82.7443 141.5095,82.8053 141.7095,82.9213 L174.9075,102.0883 C175.3135,102.3223 175.5655,102.7583 175.5655,103.2263 L175.5655,138.2743 C175.5655,138.7423 175.3135,139.1783 174.9075,139.4123 L160.6805,147.6273" stroke-linecap="round" stroke-linejoin="round"/>
      <path fill="#A5BDF2" d="M.0084 150.4038C1.0944 147.4938 2.1814 144.5908 3.2694 141.6948 2.1814 139.1858 1.0944 136.6838.0084 134.1878 7.5994 132.7398 15.2364 131.6188 22.8984 130.8238 24.2234 136.0918 25.5504 141.3688 26.8764 146.6568 17.8794 147.4558 8.9124 148.7048.0084 150.4038M101.8781 150.4038C100.7921 147.4938 99.7051 144.5908 98.6181 141.6948 99.7051 139.1858 100.7921 136.6838 101.8781 134.1878 94.7221 132.8228 87.5241 131.7478 80.3031 130.9638 78.9791 136.2248 77.6531 141.4958 76.3271 146.7768 84.8821 147.5788 93.4091 148.7878 101.8781 150.4038"/>
      <path stroke="#1E2126" stroke-width="2" d="M.0001 150.2168C1.0861 147.3108 2.1741 144.4118 3.2621 141.5188 2.1731 139.0068 1.0861 136.5008.0001 134.0008 7.5941 132.5808 15.2331 131.4808 22.8971 130.7018 24.2221 135.9718 25.5491 141.2518 26.8751 146.5418 17.8771 147.3258 8.9081 148.5508.0001 150.2168zM101.8869 150.2168C100.8009 147.3108 99.7129 144.4118 98.6249 141.5188 99.7129 139.0068 100.8009 136.5008 101.8869 134.0008 94.7269 132.6618 87.5279 131.6078 80.3049 130.8388 78.9799 136.1028 77.6539 141.3758 76.3279 146.6598 84.8849 147.4458 93.4129 148.6328 101.8869 150.2168z" stroke-linecap="round" stroke-linejoin="round"/>
      <path fill="#A5BDF2" d="M9.8561,140.9312 L9.8561,100.5702 C9.8561,99.3962 10.4821,98.3102 11.5001,97.7232 L49.3001,75.8992 C50.3171,75.3122 51.5701,75.3122 52.5871,75.8992 L90.3871,97.7232 C91.4041,98.3102 92.0301,99.3962 92.0301,100.5702 L92.0301,140.9312 C92.0301,142.1052 91.4041,143.1912 90.3871,143.7782 L52.5871,165.6012 C51.5701,166.1892 50.3171,166.1892 49.3001,165.6012 L11.5001,143.7782 C10.4821,143.1912 9.8561,142.1052 9.8561,140.9312"/>
      <polygon fill="#7289DA" points="17.856 138.21 17.856 103.292 50.943 84.189 84.03 103.292 84.03 138.21 50.943 157.313"/>
      <path stroke="#1E2126" stroke-width="2" d="M9.8561,140.9312 L9.8561,100.5702 C9.8561,99.3962 10.4821,98.3102 11.5001,97.7232 L49.3001,75.8992 C50.3171,75.3122 51.5701,75.3122 52.5871,75.8992 L90.3871,97.7232 C91.4041,98.3102 92.0301,99.3962 92.0301,100.5702 L92.0301,140.9312 C92.0301,142.1052 91.4041,143.1912 90.3871,143.7782 L52.5871,165.6012 C51.5701,166.1892 50.3171,166.1892 49.3001,165.6012 L11.5001,143.7782 C10.4821,143.1912 9.8561,142.1052 9.8561,140.9312 Z" stroke-linecap="round" stroke-linejoin="round"/>
      <polyline stroke="#1E2126" stroke-width="2" points="45.57 87.291 50.943 84.189 84.03 103.292 84.03 138.21 50.943 157.313 17.856 138.21 17.856 103.292 31.898 95.185" stroke-linecap="round" stroke-linejoin="round"/>
      <path stroke="#1E2126" stroke-width="2" d="M36.611,92.4634 L39.867,90.5834" stroke-linecap="round" stroke-linejoin="round"/>
      <path stroke="#1E2126" d="M68.3576,104.4746 C68.3576,104.4746 74.3336,111.3346 74.4916,117.2726 C74.6496,123.2106 69.2986,129.3256 62.5396,130.9316" stroke-linecap="round" stroke-linejoin="round"/>
      <path fill="#1E2126" d="M65.5309 129.8037C65.5309 129.8037 64.8709 128.0847 65.6719 126.4187 66.4519 124.7827 68.3389 123.9007 68.3389 123.9007 68.3389 123.9007 69.0309 125.5727 68.2809 127.1667 67.5109 128.7897 65.5309 129.8037 65.5309 129.8037M64.8532 130.8946C64.8532 130.8946 64.9712 133.1426 66.4982 133.7926 68.0552 134.3996 70.3982 133.2266 70.3982 133.2266 70.3982 133.2266 70.1612 131.1456 68.6252 130.5086 67.1202 129.8276 64.8532 130.8946 64.8532 130.8946M71.4098 108.7598C71.4098 108.7598 70.4748 109.8938 69.3618 109.8488 68.2488 109.8048 67.4368 108.5188 67.4368 108.5188 67.4368 108.5188 68.4058 107.3388 69.4868 107.4268 70.5668 107.5158 71.4098 108.7598 71.4098 108.7598M69.5817 128.3316C69.5817 128.3316 70.6557 129.9766 72.5097 129.8926 74.3767 129.7896 76.2197 128.1336 76.2197 128.1336 76.2197 128.1336 75.0477 126.6266 73.2357 126.6526 71.4367 126.6586 69.5817 128.3316 69.5817 128.3316M73.1637 124.5728C73.1637 124.5728 75.0287 125.3568 76.7837 124.5858 78.5227 123.8388 79.3947 121.9588 79.3947 121.9588 79.3947 121.9588 77.5287 121.1768 75.8427 121.8508 74.1397 122.5468 73.1637 124.5728 73.1637 124.5728M75.0143 120.0464C75.0143 120.0464 77.0543 120.3864 78.5083 119.3734 79.9333 118.4004 80.1753 116.5264 80.1753 116.5264 80.1753 116.5264 78.1963 116.1004 76.8003 117.0304 75.3753 118.0024 75.0143 120.0464 75.0143 120.0464M70.8834 125.6534C70.8834 125.6534 69.4564 124.6394 69.5204 123.0454 69.5844 121.4514 71.0294 120.0034 71.0294 120.0034 71.0294 120.0034 72.4104 121.0814 72.3944 122.6074 72.3774 124.1344 70.8834 125.6534 70.8834 125.6534M74.0123 120.191C74.0123 120.191 72.2083 119.929 71.5443 118.625 70.9023 117.291 71.5953 115.49 71.5953 115.49 71.5953 115.49 73.3053 115.884 73.9773 117.177 74.6703 118.44 74.0123 120.191 74.0123 120.191M75.4401 116.0909C75.4401 116.0909 77.4391 115.7489 78.3231 114.4059 79.1751 113.1079 78.6191 111.2589 78.6191 111.2589 78.6191 111.2589 76.7371 111.4349 75.8661 112.7599 74.9631 114.1309 75.4401 116.0909 75.4401 116.0909M74.0011 114.4678C74.0011 114.4678 72.2881 114.8808 71.1601 113.9798 70.0581 113.0438 69.9871 111.1108 69.9871 111.1108 69.9871 111.1108 71.6351 110.7908 72.7241 111.7438 73.8391 112.6618 74.0011 114.4678 74.0011 114.4678M74.1813 111.6343C74.1813 111.6343 75.7773 110.5693 75.9793 108.9623 76.1713 107.3723 74.9973 105.7003 74.9973 105.7003 74.9973 105.7003 73.4933 106.6363 73.2443 108.3073 72.9853 109.9933 74.1813 111.6343 74.1813 111.6343M71.8283 107.0938C71.8283 107.0938 72.6513 105.8788 72.4373 104.5908 72.2313 103.2908 71.1303 102.3208 71.1303 102.3208 71.1303 102.3208 70.3163 103.5228 70.4883 104.8708 70.6683 106.2068 71.8283 107.0938 71.8283 107.0938M69.421 105.9292C69.421 105.9292 68.71 105.2412 67.976 105.1592 67.239 105.0682 66.758 105.6152 66.758 105.6152 66.758 105.6152 67.479 106.3322 68.216 106.4242 68.95 106.5062 69.421 105.9292 69.421 105.9292M69.1232 103.3672C69.1232 103.3672 69.2372 102.3842 68.8552 101.7512 68.4792 101.1112 67.7522 101.0622 67.7522 101.0622 67.7522 101.0622 67.6222 102.0712 67.9972 102.7112 68.3782 103.3442 69.1232 103.3672 69.1232 103.3672"/>
      <path stroke="#1E2126" d="M33.5289,104.4746 C33.5289,104.4746 27.5539,111.3346 27.3959,117.2726 C27.2369,123.2106 32.5879,129.3256 39.3469,130.9316" stroke-linecap="round" stroke-linejoin="round"/>
      <path fill="#1E2126" d="M36.3556 129.8037C36.3556 129.8037 37.0156 128.0847 36.2146 126.4187 35.4346 124.7827 33.5476 123.9007 33.5476 123.9007 33.5476 123.9007 32.8556 125.5727 33.6056 127.1667 34.3756 128.7897 36.3556 129.8037 36.3556 129.8037M37.0338 130.8946C37.0338 130.8946 36.9148 133.1426 35.3888 133.7926 33.8308 134.3996 31.4888 133.2266 31.4888 133.2266 31.4888 133.2266 31.7248 131.1456 33.2618 130.5086 34.7658 129.8276 37.0338 130.8946 37.0338 130.8946M30.4767 108.7598C30.4767 108.7598 31.4117 109.8938 32.5247 109.8488 33.6387 109.8048 34.4497 108.5188 34.4497 108.5188 34.4497 108.5188 33.4807 107.3388 32.3997 107.4268 31.3197 107.5158 30.4767 108.7598 30.4767 108.7598M32.3048 128.3316C32.3048 128.3316 31.2308 129.9766 29.3768 129.8926 27.5098 129.7896 25.6668 128.1336 25.6668 128.1336 25.6668 128.1336 26.8388 126.6266 28.6518 126.6526 30.4498 126.6586 32.3048 128.3316 32.3048 128.3316M28.7233 124.5728C28.7233 124.5728 26.8583 125.3568 25.1033 124.5858 23.3643 123.8388 22.4923 121.9588 22.4923 121.9588 22.4923 121.9588 24.3583 121.1768 26.0443 121.8508 27.7473 122.5468 28.7233 124.5728 28.7233 124.5728M26.8722 120.0464C26.8722 120.0464 24.8322 120.3864 23.3782 119.3734 21.9532 118.4004 21.7122 116.5264 21.7122 116.5264 21.7122 116.5264 23.6902 116.1004 25.0862 117.0304 26.5112 118.0024 26.8722 120.0464 26.8722 120.0464M31.0036 125.6534C31.0036 125.6534 32.4306 124.6394 32.3666 123.0454 32.3026 121.4514 30.8576 120.0034 30.8576 120.0034 30.8576 120.0034 29.4766 121.0814 29.4926 122.6074 29.5086 124.1344 31.0036 125.6534 31.0036 125.6534M27.8742 120.191C27.8742 120.191 29.6792 119.929 30.3422 118.625 30.9842 117.291 30.2912 115.49 30.2912 115.49 30.2912 115.49 28.5812 115.884 27.9092 117.177 27.2162 118.44 27.8742 120.191 27.8742 120.191M26.4469 116.0909C26.4469 116.0909 24.4479 115.7489 23.5639 114.4059 22.7119 113.1079 23.2679 111.2589 23.2679 111.2589 23.2679 111.2589 25.1489 111.4349 26.0209 112.7599 26.9239 114.1309 26.4469 116.0909 26.4469 116.0909M27.8854 114.4678C27.8854 114.4678 29.5994 114.8808 30.7264 113.9798 31.8284 113.0438 31.8994 111.1108 31.8994 111.1108 31.8994 111.1108 30.2514 110.7908 29.1624 111.7438 28.0474 112.6618 27.8854 114.4678 27.8854 114.4678M27.7057 111.6343C27.7057 111.6343 26.1097 110.5693 25.9067 108.9623 25.7157 107.3723 26.8887 105.7003 26.8887 105.7003 26.8887 105.7003 28.3927 106.6363 28.6417 108.3073 28.9017 109.9933 27.7057 111.6343 27.7057 111.6343M30.0582 107.0938C30.0582 107.0938 29.2362 105.8788 29.4502 104.5908 29.6552 103.2908 30.7562 102.3208 30.7562 102.3208 30.7562 102.3208 31.5702 103.5228 31.3982 104.8708 31.2192 106.2068 30.0582 107.0938 30.0582 107.0938M32.4655 105.9292C32.4655 105.9292 33.1765 105.2412 33.9105 105.1592 34.6475 105.0682 35.1295 105.6152 35.1295 105.6152 35.1295 105.6152 34.4075 106.3322 33.6705 106.4242 32.9365 106.5062 32.4655 105.9292 32.4655 105.9292M32.7638 103.3672C32.7638 103.3672 32.6498 102.3842 33.0318 101.7512 33.4078 101.1112 34.1348 101.0622 34.1348 101.0622 34.1348 101.0622 34.2648 102.0712 33.8888 102.7112 33.5088 103.3442 32.7638 103.3672 32.7638 103.3672"/>
      <path fill="#1E2126" d="M16.4303,133.9317 L16.4303,138.2747 C16.4303,138.7427 16.6823,139.1797 17.0873,139.4127 L50.2853,158.5797 C50.4853,158.6957 50.7133,158.7567 50.9433,158.7567 C51.1743,158.7567 51.4013,158.6957 51.6003,158.5797 L84.7993,139.4127 C85.2053,139.1797 85.4563,138.7427 85.4563,138.2747 L85.4563,133.9317 L16.4303,133.9317 Z"/>
      <path fill="#1E2126" d="M89.2404,146.2002 C63.9144,143.0822 38.3014,143.0822 12.9754,146.2002 C12.4324,146.2662 11.9924,145.8812 11.9924,145.3362 L11.9924,131.8602 C11.9924,131.3152 12.4324,130.8182 12.9754,130.7512 C38.3014,127.6332 63.9144,127.6332 89.2404,130.7512 C89.7824,130.8172 90.2234,131.3162 90.2224,131.8602 L90.2224,145.3362 C90.2234,145.8812 89.7824,146.2662 89.2404,146.2002"/>
      <path fill="#CDDDFC" d="M94.3317,144.0215 C65.5207,140.3815 36.3667,140.3815 7.5557,144.0215 L7.5557,126.2715 C36.3657,122.6325 65.5207,122.6325 94.3317,126.2715 L94.3317,144.0215 Z"/>
      <path stroke="#1E2126" stroke-width="2" d="M94.3317,144.0215 C65.5207,140.3815 36.3667,140.3815 7.5557,144.0215 L7.5557,126.2715 C36.3657,122.6325 65.5207,122.6325 94.3317,126.2715 L94.3317,144.0215 Z" stroke-linecap="round" stroke-linejoin="round"/>
      <path fill="#1E2126" d="M14.9411 131.417L15.4331 132.414C15.4811 132.511 15.5741 132.578 15.6811 132.594L16.7811 132.754C17.0511 132.793 17.1581 133.124 16.9631 133.314L16.1671 134.091C16.0891 134.166 16.0541 134.275 16.0721 134.381L16.2601 135.478C16.3071 135.746 16.0251 135.951 15.7841 135.824L14.7991 135.307C14.7041 135.256 14.5891 135.256 14.4931 135.307L13.5091 135.824C13.2681 135.951 12.9861 135.746 13.0321 135.478L13.2201 134.381C13.2381 134.275 13.2031 134.166 13.1261 134.091L12.3291 133.314C12.1341 133.124 12.2421 132.793 12.5111 132.754L13.6121 132.594C13.7191 132.578 13.8121 132.511 13.8591 132.414L14.3521 131.417C14.4721 131.172 14.8201 131.172 14.9411 131.417M87.3913 131.2803L87.9283 132.3673C87.9753 132.4643 88.0683 132.5313 88.1753 132.5473L89.3753 132.7213C89.6443 132.7603 89.7523 133.0923 89.5573 133.2823L88.6893 134.1283C88.6113 134.2043 88.5763 134.3123 88.5943 134.4193L88.7993 135.6143C88.8453 135.8833 88.5633 136.0873 88.3223 135.9613L87.2493 135.3963C87.1543 135.3463 87.0393 135.3463 86.9433 135.3963L85.8703 135.9613C85.6293 136.0873 85.3473 135.8833 85.3933 135.6143L85.5983 134.4193C85.6173 134.3123 85.5813 134.2043 85.5043 134.1283L84.6363 133.2823C84.4403 133.0923 84.5483 132.7603 84.8183 132.7213L86.0173 132.5473C86.1243 132.5313 86.2173 132.4643 86.2653 132.3673L86.8023 131.2803C86.9223 131.0353 87.2703 131.0353 87.3913 131.2803M24.8068 133.5943C26.2208 133.4973 26.9078 132.4983 26.9078 131.5413 26.9078 130.5723 26.2068 129.6573 24.8068 129.7533 23.9678 129.8113 23.1288 129.8723 22.2898 129.9353L22.2898 133.7763C23.1288 133.7133 23.9678 133.6523 24.8068 133.5943L24.8068 133.5943zM21.1728 128.8893C22.3838 128.7943 23.5958 128.7053 24.8068 128.6213 26.9478 128.4743 28.0258 129.9503 28.0258 131.4723 28.0258 133.0093 26.9478 134.5793 24.8208 134.7253 23.9768 134.7833 23.1338 134.8443 22.2898 134.9083L22.2898 138.3453C21.9178 138.3733 21.5448 138.4023 21.1728 138.4313L21.1728 128.8893zM34.0221 133.4478C33.4961 132.0028 33.1051 130.8748 32.5661 129.3788 32.0811 130.8028 31.6241 132.1338 31.1111 133.5888 32.0821 133.5378 33.0521 133.4908 34.0221 133.4478M36.7041 137.5288C36.3091 137.5438 35.9131 137.5588 35.5181 137.5748 35.1491 136.5708 34.7811 135.5668 34.4131 134.5628 33.1861 134.6158 31.9601 134.6758 30.7341 134.7408 30.3841 135.7568 29.9931 136.8428 29.6561 137.8598 29.2571 137.8818 28.8571 137.9048 28.4581 137.9278 29.5981 134.6798 30.7381 131.4368 31.8791 128.1988 32.3371 128.1768 32.7951 128.1538 33.2541 128.1328 34.4041 131.2598 35.5541 134.3908 36.7041 137.5288M42.1456 132.4175C43.4396 132.3875 44.2626 131.9425 44.2626 130.6355 44.2626 129.3145 43.3856 128.9255 42.1456 128.9535 41.3046 128.9735 40.4646 128.9955 39.6246 129.0205L39.6246 132.4845C40.4646 132.4595 41.3046 132.4375 42.1456 132.4175M41.0936 133.4945C40.6036 133.5075 40.1136 133.5215 39.6246 133.5355L39.6246 137.4305C39.2466 137.4415 38.8696 137.4535 38.4916 137.4655L38.4916 127.9235C39.7056 127.8845 40.9186 127.8505 42.1316 127.8215 43.9656 127.7795 45.3546 128.5835 45.3956 130.6175 45.3956 132.5175 44.1276 133.3295 42.4966 133.4475 43.5206 134.7275 44.5456 136.0105 45.5706 137.2985 45.1076 137.3055 44.6446 137.3135 44.1816 137.3215 43.1526 136.0415 42.1236 134.7655 41.0936 133.4945M50.9948 128.8511L50.9948 137.2611C50.6178 137.2611 50.2398 137.2611 49.8618 137.2621L49.8618 128.8521C48.8418 128.8561 47.8208 128.8631 46.8008 128.8741L46.8008 127.7421C49.2198 127.7151 51.6378 127.7121 54.0568 127.7311L54.0568 128.8641C53.0368 128.8551 52.0158 128.8511 50.9948 128.8511M62.0304 127.8804C62.4074 127.8914 62.7854 127.9024 63.1624 127.9154L63.1624 137.4564C62.6864 137.4414 62.2104 137.4264 61.7334 137.4134 60.1694 134.8484 58.6054 132.2944 57.0404 129.7484L57.0404 137.3094C56.6634 137.3034 56.2854 137.2974 55.9084 137.2924L55.9084 127.7514C56.3124 127.7564 56.7174 127.7624 57.1214 127.7694 58.7584 130.4234 60.3944 133.0884 62.0304 135.7644L62.0304 127.8804zM66.6769 132.2486C68.2089 132.3116 69.7399 132.3846 71.2719 132.4666L71.2719 133.5996C69.7399 133.5176 68.2089 133.4446 66.6769 133.3806L66.6769 136.4536C68.3389 136.5226 70.0009 136.6026 71.6629 136.6926L71.6629 137.8246C69.6239 137.7136 67.5849 137.6186 65.5449 137.5406L65.5449 127.9986C67.5849 128.0776 69.6239 128.1716 71.6629 128.2836L71.6629 129.4156C70.0009 129.3246 68.3389 129.2456 66.6769 129.1766L66.6769 132.2486zM77.3473 133.232C78.6393 133.322 79.4603 132.954 79.4603 131.647 79.4603 130.326 78.5853 129.855 77.3473 129.769 76.5083 129.71 75.6683 129.654 74.8293 129.602L74.8293 133.065C75.6683 133.118 76.5083 133.173 77.3473 133.232M76.2973 134.211C75.8073 134.179 75.3183 134.147 74.8293 134.116L74.8293 138.011C74.4523 137.987 74.0753 137.964 73.6983 137.941L73.6983 128.4C74.9103 128.473 76.1223 128.551 77.3333 128.635 79.1643 128.763 80.5513 129.695 80.5913 131.733 80.5913 133.634 79.3263 134.328 77.6973 134.294 78.7203 135.669 79.7433 137.048 80.7653 138.431 80.3043 138.395 79.8423 138.359 79.3793 138.325 78.3523 136.95 77.3253 135.579 76.2973 134.211"/>
      <path fill="#F9F9F9" d="M49.3385 113.3077C51.4095 115.3707 53.8825 118.1917 57.8535 118.0657 61.7555 117.9417 64.0915 114.8947 64.0915 111.8287 64.0915 110.9647 63.9305 109.2897 62.8565 107.7827 61.7385 106.2147 59.9625 105.3517 57.8535 105.3517 54.6295 105.3517 52.7215 107.0617 52.0915 107.7207 51.9755 107.8407 51.9845 108.0337 52.1095 108.1447L54.9935 110.7257C55.1075 110.8277 55.2785 110.8287 55.3905 110.7247 55.7315 110.4067 56.5465 109.8077 57.8535 109.8077 59.6515 109.8077 59.6345 111.8287 59.6345 111.8287 59.6345 111.8467 59.6145 113.6097 57.8535 113.6097 57.0255 113.6097 56.0555 113.3437 54.6275 112.1287 53.7955 111.4217 53.6395 111.2527 52.6315 110.3057 51.6245 109.3597 47.9025 105.3517 44.0335 105.3517 40.1285 105.3517 37.7955 108.5227 37.7955 111.5877 37.7955 112.4527 37.9555 114.1267 39.0305 115.6347 40.1485 117.2027 41.9245 118.0657 44.0335 118.0657 47.2565 118.0657 49.1595 116.4747 49.7935 115.8447 49.9125 115.7267 49.9065 115.5337 49.7845 115.4197L47.0195 112.8317C46.9145 112.7337 46.7555 112.7257 46.6395 112.8097 46.2685 113.0787 45.3725 113.6037 44.0555 113.6097 44.0405 113.6097 44.0265 113.6087 44.0105 113.6067 43.8045 113.5797 42.2585 113.3207 42.2525 111.5997L42.2525 111.5747C42.2595 111.4117 42.3705 109.8077 44.0335 109.8077 45.9895 109.8077 47.9085 111.8827 49.3385 113.3077M55.4318 65.4727L55.4318 25.1117C55.4318 23.9367 56.0578 22.8517 57.0758 22.2647L94.8758.4407C95.8928-.1463 97.1458-.1463 98.1628.4407L135.9628 22.2647C136.9798 22.8517 137.6068 23.9367 137.6068 25.1117L137.6068 65.4727C137.6068 66.6467 136.9798 67.7317 135.9628 68.3197L98.1628 90.1427C97.1458 90.7297 95.8928 90.7297 94.8758 90.1427L57.0758 68.3197C56.0578 67.7317 55.4318 66.6467 55.4318 65.4727"/>
      <path stroke="#D5DBED" stroke-width="2" d="M55.4318,65.4727 L55.4318,25.1117 C55.4318,23.9367 56.0578,22.8517 57.0758,22.2647 L94.8758,0.4407 C95.8928,-0.1463 97.1458,-0.1463 98.1628,0.4407 L135.9628,22.2647 C136.9798,22.8517 137.6068,23.9367 137.6068,25.1117 L137.6068,65.4727 C137.6068,66.6467 136.9798,67.7317 135.9628,68.3197 L98.1628,90.1427 C97.1458,90.7297 95.8928,90.7297 94.8758,90.1427 L57.0758,68.3197 C56.0578,67.7317 55.4318,66.6467 55.4318,65.4727 Z" stroke-linecap="round" stroke-linejoin="round"/>
      <path stroke="#D5DBED" stroke-width="2" d="M73.2072 70.042L62.6632 63.954C62.2582 63.72 62.0062 63.284 62.0062 62.816L62.0062 27.768C62.0062 27.3 62.2582 26.864 62.6632 26.63L95.8622 7.462C96.0612 7.347 96.2892 7.286 96.5192 7.286 96.7502 7.286 96.9772 7.347 97.1772 7.462L130.3752 26.63C130.7812 26.864 131.0322 27.3 131.0322 27.768L131.0322 62.816C131.0322 63.284 130.7812 63.72 130.3752 63.954L97.1762 83.122C96.9772 83.237 96.7492 83.298 96.5192 83.298 96.2892 83.298 96.0612 83.237 95.8612 83.122L80.1732 74.064M62.006 27.7681L131.032 62.8161M96.5197 7.2862L96.5197 83.1212M130.3566 27.7681L62.6896 62.8161" stroke-linecap="round" stroke-linejoin="round"/>
      <polygon fill="#F9F9F9" points="70.005 58.956 70.005 31.628 96.519 16.32 123.032 31.628 123.032 58.956 96.519 74.264"/>
      <polyline stroke="#D5DBED" stroke-width="2" points="123.032 42.098 123.032 58.956 96.518 74.264 70.005 58.956 70.005 31.628 96.519 16.32 123.032 31.628 123.032 35.932" stroke-linecap="round" stroke-linejoin="round"/>
      <polygon stroke="#D5DBED" stroke-width="2" points="82.36 55.825 83.677 51.233 102.717 32.193 107.309 30.876 110.687 34.254 109.37 38.846 90.33 57.886 85.738 59.203" stroke-linecap="round" stroke-linejoin="round"/>
      <polygon stroke="#D5DBED" stroke-width="2" points="85.738 30.876 90.33 32.193 109.37 51.233 110.687 55.825 107.309 59.203 102.717 57.886 83.677 38.846 82.36 34.254" stroke-linecap="round" stroke-linejoin="round"/>
      <polyline stroke="#D5DBED" stroke-width="2" points="131.271 99.446 106.538 138.598 175.565 138.598 141.709 82.921 134.688 94.036" stroke-linecap="round" stroke-linejoin="round"/>
      <path stroke="#D5DBED" stroke-width="2" d="M151.2306,123.6451 C151.2306,129.1571 146.7626,133.6251 141.2506,133.6251 C135.7386,133.6251 131.2706,129.1571 131.2706,123.6451 C131.2706,118.1331 135.7386,113.6651 141.2506,113.6651 C146.7626,113.6651 151.2306,118.1331 151.2306,123.6451 Z" stroke-linecap="round" stroke-linejoin="round"/>
      <path stroke="#D5DBED" stroke-width="2" d="M165.2506,123.6451 C165.2506,123.6451 157.4106,138.6061 141.2506,138.6061 C125.0906,138.6061 117.2506,123.6451 117.2506,123.6451 C117.2506,123.6451 127.2756,108.6851 141.2506,108.6851 C155.2256,108.6851 165.2506,123.6451 165.2506,123.6451 Z" stroke-linecap="round" stroke-linejoin="round"/>
    </g>
    <rect width="210" height="210"/>
  </g>
</svg>
