<svg xmlns="http://www.w3.org/2000/svg" width="210" height="210" viewBox="0 0 210 210">
  <g fill="none" fill-rule="evenodd">
    <g transform="translate(2 39)">
      <path stroke="#D5DBED" stroke-width="2" d="M18.9421,7.7217 C38.5161,16.4227 72.2641,28.1737 110.6431,28.1737 C149.0211,28.1737 182.7701,16.4227 202.3431,7.7217" stroke-linecap="round" stroke-linejoin="round"/>
      <path fill="#F9F9F9" d="M50.4729,35.435 L46.0829,25.515 L57.8639,20.3 C59.2879,16.375 61.0049,12.554 62.4069,8.615 L34.4119,21.005 L44.4439,43.67 C46.5979,41.032 48.6569,38.325 50.4729,35.435"/>
      <polyline stroke="#D5DBED" stroke-width="2" points="28.499 83.459 38.435 57.745 47.009 50.596 48.549 61.653 31.99 104.507 21.875 100.6 25.58 91.011" stroke-linecap="round" stroke-linejoin="round"/>
      <polygon stroke="#D5DBED" stroke-width="2" points="47.242 49.994 76.231 37.164 63.401 8.176 34.412 21.005" stroke-linecap="round" stroke-linejoin="round"/>
      <polygon stroke="#D5DBED" stroke-width="2" points="51.752 38.323 64.561 32.654 58.892 19.845 46.083 25.514" stroke-linecap="round" stroke-linejoin="round"/>
      <path fill="#F9F9F9" d="M68.7449 11.437C67.5189 14.611 63.9519 16.19 60.7779 14.963 57.6039 13.737 56.0249 10.17 57.2519 6.996 58.4779 3.822 62.0449 2.244 65.2189 3.47 68.3929 4.696 69.9719 8.263 68.7449 11.437M53.6453 50.5146C52.4193 53.6886 48.8523 55.2676 45.6783 54.0406 42.5043 52.8146 40.9253 49.2476 42.1523 46.0736 43.3783 42.8996 46.9453 41.3216 50.1193 42.5476 53.2933 43.7736 54.8723 47.3406 53.6453 50.5146M72.7668 42.0522C69.5928 40.8252 68.0148 37.2592 69.2408 34.0852 70.4668 30.9112 74.0338 29.3322 77.2078 30.5582 80.3818 31.7852 81.9608 35.3522 80.7338 38.5262 79.5078 41.6992 75.9408 43.2782 72.7668 42.0522M33.6892 26.9526C30.5152 25.7256 28.9372 22.1596 30.1632 18.9856 31.3892 15.8116 34.9562 14.2326 38.1302 15.4586 41.3042 16.6856 42.8822 20.2526 41.6562 23.4266 40.4302 26.5996 36.8632 28.1786 33.6892 26.9526"/>
      <path stroke="#D5DBED" stroke-width="2" d="M58.4485 13.3721C56.9245 11.7011 56.3815 9.2491 57.2515 6.9961 58.4775 3.8221 62.0455 2.2441 65.2195 3.4701 68.3925 4.6961 69.9715 8.2631 68.7445 11.4371 67.8675 13.7071 65.7935 15.1611 63.5225 15.3561M52.1814 43.8638C53.9074 45.5328 54.5654 48.1348 53.6454 50.5148 52.4194 53.6888 48.8514 55.2678 45.6784 54.0408 42.5044 52.8148 40.9254 49.2478 42.1524 46.0738 43.0724 43.6938 45.3084 42.2108 47.7074 42.1348M69.2405 34.0849C70.4675 30.9109 74.0335 29.3319 77.2075 30.5589 80.3815 31.7849 81.9605 35.3519 80.7345 38.5259 79.5075 41.6999 75.9405 43.2779 72.7665 42.0519 71.0015 41.3699 69.7295 39.9639 69.1595 38.3039M39.5896 26.1479C37.9486 27.3669 35.7366 27.7439 33.6896 26.9529 30.5156 25.7259 28.9366 22.1589 30.1626 18.9849 31.3896 15.8119 34.9566 14.2319 38.1306 15.4589 41.3036 16.6859 42.8826 20.2519 41.6566 23.4259M38.0442 58.7563L48.1582 62.6643M36.4807 62.8017L46.5947 66.7097" stroke-linecap="round" stroke-linejoin="round"/>
      <polyline stroke="#D5DBED" stroke-width="2" points="31.02 76.934 26.229 75.083 19.097 93.541 23.888 95.392" stroke-linecap="round" stroke-linejoin="round"/>
      <polygon stroke="#D5DBED" stroke-width="2" points="18.138 71.956 17.127 71.565 15.282 70.852 14.012 74.14 15.857 74.852 14.391 78.645 12.546 77.933 10.885 82.231 12.73 82.944 11.264 86.737 9.42 86.024 8.149 89.311 9.994 90.024 11.006 90.414 14.635 91.817 21.767 73.358" stroke-linecap="round" stroke-linejoin="round"/>
      <polygon stroke="#D5DBED" stroke-width="2" points="20.012 91.176 15.55 89.452 17.273 84.989 21.735 86.714" stroke-linecap="round" stroke-linejoin="round"/>
      <path fill="#F9F9F9" d="M187.4172,56.395 C201.4632,45.788 199.8882,37.122 193.5902,27.415 C187.2922,17.707 177.4912,12.493 164.6102,21.242 C151.0522,30.45 137.4762,50.028 143.7732,59.735 C148.1042,66.41 160.9312,66.996 172.7742,63.499 L186.3092,99.332 C186.6832,100.323 187.7892,100.822 188.7802,100.448 L196.7352,97.443 C197.7252,97.069 198.2252,95.963 197.8512,94.973 L197.2082,93.27 C196.8342,92.279 197.3332,91.172 198.3242,90.798 L200.5082,89.974 C201.4982,89.599 201.9982,88.493 201.6242,87.502 L199.7092,82.433 C199.3352,81.442 198.2292,80.943 197.2382,81.317 L195.0542,82.142 C194.0632,82.516 192.9572,82.016 192.5832,81.025 L191.5762,78.361 C191.2022,77.37 191.7022,76.264 192.6922,75.89 L194.8762,75.065 C195.8672,74.69 196.3672,73.584 195.9932,72.594 L195.1672,70.41 C194.7932,69.419 193.6872,68.919 192.6962,69.293 L190.5132,70.119 C189.5222,70.493 188.4162,69.993 188.0422,69.002 L184.1132,58.603 C185.2732,57.909 186.3832,57.176 187.4172,56.395"/>
      <path stroke="#D5DBED" stroke-width="2" d="M187.4172 56.395C201.4632 45.788 199.8882 37.122 193.5902 27.415 187.2922 17.707 177.4912 12.493 164.6102 21.242 151.0522 30.45 137.4762 50.028 143.7732 59.735 147.6272 65.675 158.2092 66.793 168.8392 64.503 171.1412 64.007 173.4532 65.298 174.2852 67.5L186.3092 99.332C186.6832 100.323 187.7892 100.822 188.7802 100.448L196.7352 97.443C197.7252 97.069 198.2252 95.963 197.8512 94.973L197.2082 93.27C196.8342 92.279 197.3332 91.172 198.3242 90.798L200.5082 89.974C201.4982 89.599 201.9982 88.493 201.6242 87.502L199.7092 82.433C199.3352 81.442 198.2292 80.943 197.2382 81.317L195.0542 82.142C194.0632 82.516 192.9572 82.016 192.5832 81.025L191.5762 78.361C191.2022 77.37 191.7022 76.264 192.6922 75.89L194.8762 75.065C195.8672 74.69 196.3672 73.584 195.9932 72.594L195.1672 70.41C194.7932 69.419 193.6872 68.919 192.6962 69.293L190.5132 70.119C189.5222 70.493 188.4162 69.993 188.0422 69.002L185.4622 62.174C184.6982 60.15 185.4012 57.884 187.1432 56.6 187.2352 56.532 187.3262 56.463 187.4172 56.395zM163.8796 60.4014C164.1756 61.8514 164.3116 63.3434 164.2426 64.8664M147.4294 38.9516C147.4294 38.9516 158.2664 46.1216 162.5494 56.1886" stroke-linecap="round" stroke-linejoin="round"/>
      <path fill="#F9F9F9" d="M190.4949,2.9365 L170.9699,20.4395 L165.1729,25.6365 C158.4329,31.6785 157.8669,42.0395 163.9089,48.7795 C169.9509,55.5195 180.3119,56.0845 187.0519,50.0435 L191.0179,46.4875 L203.2219,35.5485 C204.9069,34.0385 205.0479,31.4475 203.5369,29.7625 C202.0269,28.0775 199.4369,27.9365 197.7519,29.4465 L200.8029,26.7115 C202.4879,25.2015 202.6289,22.6105 201.1189,20.9255 C199.6079,19.2405 197.0179,19.0995 195.3329,20.6095 L198.3839,17.8745 C200.0689,16.3645 200.2099,13.7735 198.6999,12.0895 C197.1889,10.4045 194.5989,10.2625 192.9139,11.7725 L195.9649,9.0385 C197.6499,7.5275 197.7909,4.9375 196.2809,3.2525 C194.7699,1.5675 192.1799,1.4265 190.4949,2.9365"/>
      <path stroke="#D5DBED" stroke-width="2" d="M187.4221 16.6958L192.9141 11.7738C194.5991 10.2628 197.1891 10.4038 198.7001 12.0898 200.2101 13.7738 200.0681 16.3648 198.3831 17.8748L190.4511 24.9858M195.3328 20.6098C197.0178 19.0998 199.6078 19.2408 201.1188 20.9258 202.6288 22.6108 202.4878 25.2008 200.8028 26.7118L192.8708 33.8218" stroke-linecap="round" stroke-linejoin="round"/>
      <path stroke="#D5DBED" stroke-width="2" d="M192.26,34.3691 L197.752,29.4471 C199.437,27.9361 202.027,28.0771 203.537,29.7631 C205.048,31.4471 204.906,34.0381 203.221,35.5481 L191.018,46.4881 L187.052,50.0431 C180.312,56.0851 169.95,55.5191 163.909,48.7791 C157.867,42.0391 158.433,31.6781 165.173,25.6361 L170.969,20.4401 L190.495,2.9361 C192.18,1.4261 194.77,1.5671 196.281,3.2521 C197.791,4.9371 197.65,7.5281 195.965,9.0381 L188.032,16.1491" stroke-linecap="round" stroke-linejoin="round"/>
      <path stroke="#D5DBED" stroke-width="2" d="M183.7395,31.0024 C187.5155,35.2144 187.1615,41.6904 182.9495,45.4664 C178.7375,49.2434 172.2605,48.8894 168.4855,44.6774 C164.7085,40.4644 165.0625,33.9884 169.2755,30.2124 C173.4875,26.4364 179.9635,26.7904 183.7395,31.0024 Z" stroke-linecap="round" stroke-linejoin="round"/>
      <path fill="#F8D679" d="M103.8689,80.6626 L103.8689,101.8786 C103.8689,102.4646 103.3939,102.9396 102.8079,102.9396 L95.3829,102.9396 C93.0389,102.9396 91.1399,104.8396 91.1399,107.1826 C91.1399,109.5256 93.0389,111.4256 95.3829,111.4256 L100.6869,111.4256 C102.4439,111.4256 103.8689,112.8506 103.8689,114.6086 C103.8689,116.3656 102.4439,117.7906 100.6869,117.7906 L89.0179,117.7906 C86.6739,117.7906 84.7749,119.6906 84.7749,122.0336 C84.7749,124.3776 86.6739,126.2776 89.0179,126.2776 L102.8079,126.2776 C103.3939,126.2776 103.8689,126.7516 103.8689,127.3376 L103.8689,129.4596 C103.8689,131.2176 105.2939,132.6416 107.0519,132.6416 L110.2339,132.6416 C111.9919,132.6416 113.4159,131.2176 113.4159,129.4596 L113.4159,80.6626 L103.8689,80.6626 Z"/>
      <path stroke="#1E2126" stroke-width="2" d="M103.8689,80.6626 L103.8689,101.8786 C103.8689,102.4646 103.3939,102.9396 102.8079,102.9396 L95.3829,102.9396 C93.0389,102.9396 91.1399,104.8396 91.1399,107.1826 C91.1399,109.5256 93.0389,111.4256 95.3829,111.4256 L100.6869,111.4256 C102.4439,111.4256 103.8689,112.8506 103.8689,114.6086 C103.8689,116.3656 102.4439,117.7906 100.6869,117.7906 L89.0179,117.7906 C86.6739,117.7906 84.7749,119.6906 84.7749,122.0336 C84.7749,124.3776 86.6739,126.2776 89.0179,126.2776 L102.8079,126.2776 C103.3939,126.2776 103.8689,126.7516 103.8689,127.3376 L103.8689,129.4596 C103.8689,131.2176 105.2939,132.6416 107.0519,132.6416 L110.2339,132.6416 C111.9919,132.6416 113.4159,131.2176 113.4159,129.4596 L113.4159,80.6626 L103.8689,80.6626 Z" stroke-linecap="round" stroke-linejoin="round"/>
      <path fill="#F4CC69" d="M110.7644,90.2095 L106.5214,90.2095 C101.8344,90.2095 98.0344,86.4105 98.0344,81.7235 L119.2504,81.7235 C119.2504,86.4105 115.4514,90.2095 110.7644,90.2095"/>
      <path stroke="#1E2126" stroke-width="2" d="M106.5212,90.2095 C101.8342,90.2095 98.0342,86.4105 98.0342,81.7235 L119.2502,81.7235 C119.2502,86.4105 115.4512,90.2095 110.7642,90.2095" stroke-linecap="round" stroke-linejoin="round"/>
      <path fill="#F8D679" d="M108.6428,75.5444 C98.3898,75.5444 90.0788,67.2324 90.0788,56.9804 C90.0788,46.7274 98.3898,38.4164 108.6428,38.4164 C118.8948,38.4164 127.2068,46.7274 127.2068,56.9804 C127.2068,67.2324 118.8948,75.5444 108.6428,75.5444 M108.6428,29.3994 C93.4098,29.3994 81.0618,41.7474 81.0618,56.9804 C81.0618,72.2124 93.4098,84.5614 108.6428,84.5614 C123.8748,84.5614 136.2238,72.2124 136.2238,56.9804 C136.2238,41.7474 123.8748,29.3994 108.6428,29.3994"/>
      <path stroke="#1E2126" stroke-width="2" d="M136.2239,56.98 C136.2239,41.748 123.8749,29.399 108.6429,29.399 C93.4099,29.399 81.0619,41.748 81.0619,56.98 C81.0619,72.213 93.4099,84.561 108.6429,84.561 C123.8749,84.561 136.2239,72.213 136.2239,56.98 Z" stroke-linecap="round" stroke-linejoin="round"/>
      <path stroke="#1E2126" stroke-width="2" d="M127.03 56.98C127.03 46.825 118.798 38.593 108.643 38.593 98.488 38.593 90.256 46.825 90.256 56.98 90.256 67.135 98.488 75.368 108.643 75.368 118.798 75.368 127.03 67.135 127.03 56.98zM108.6428 38.5928L108.6428 74.3068" stroke-linecap="round" stroke-linejoin="round"/>
      <path fill="#F4CC69" d="M117.6594,56.98 C117.6594,52.001 113.6224,47.963 108.6424,47.963 C103.6624,47.963 99.6254,52.001 99.6254,56.98 C99.6254,61.96 103.6624,65.997 108.6424,65.997 C113.6224,65.997 117.6594,61.96 117.6594,56.98"/>
      <path stroke="#1E2126" stroke-width="2" d="M117.6594,56.98 C117.6594,52.001 113.6224,47.963 108.6424,47.963 C103.6624,47.963 99.6254,52.001 99.6254,56.98 C99.6254,61.96 103.6624,65.997 108.6424,65.997 C113.6224,65.997 117.6594,61.96 117.6594,56.98 Z" stroke-linecap="round" stroke-linejoin="round"/>
      <path fill="#F8D679" d="M113.8464,27.6279 C113.2784,24.7539 110.4884,22.8849 107.6154,23.4519 C104.7414,24.0199 102.8714,26.8099 103.4394,29.6839 C104.0074,32.5579 106.7964,34.4269 109.6704,33.8589 C112.5444,33.2919 114.4134,30.5019 113.8464,27.6279"/>
      <path stroke="#1E2126" stroke-width="2" d="M113.0491,31.6084 C113.8041,30.4804 114.1301,29.0644 113.8461,27.6284 C113.2781,24.7544 110.4881,22.8844 107.6151,23.4524 C104.7411,24.0204 102.8711,26.8104 103.4391,29.6834 C103.8151,31.5834 105.1611,33.0444 106.8611,33.6524" stroke-linecap="round" stroke-linejoin="round"/>
      <path stroke="#D5DBED" d="M15.9944 46.8735L15.0004 48.1105M10.9919 52.042L9.9979 53.279M16.199 53.1216L15.126 51.9366M10.8669 48.2153L9.7939 47.0303M164.5789 102.5913L163.5849 103.8283M159.5764 107.7598L158.5824 108.9968M164.783 108.8393L163.71 107.6543M159.4514 103.9331L158.3784 102.7481M141.3455.5L141.3455 5.704M143.9475 3.1015L138.7435 3.1015M203.3577 59.3955L203.3577 64.5985M205.9592 61.9971L200.7562 61.9971M71.3489 92.1904L71.3489 97.3934M73.9504 94.792L68.7464 94.792M6.5002 34.8755C6.5002 36.5325 5.1572 37.8755 3.5002 37.8755 1.8432 37.8755.5002 36.5325.5002 34.8755.5002 33.2185 1.8432 31.8755 3.5002 31.8755 5.1572 31.8755 6.5002 33.2185 6.5002 34.8755zM170.9919 89.29C170.9919 90.947 169.6489 92.29 167.9919 92.29 166.3349 92.29 164.9919 90.947 164.9919 89.29 164.9919 87.633 166.3349 86.29 167.9919 86.29 169.6489 86.29 170.9919 87.633 170.9919 89.29z" stroke-linecap="round" stroke-linejoin="round"/>
    </g>
    <rect width="210" height="210"/>
  </g>
</svg>
