<svg xmlns="http://www.w3.org/2000/svg" width="210" height="210" viewBox="0 0 210 210" xmlns:xlink="http://www.w3.org/1999/xlink">
  <defs>
    <polygon id="a" points="0 182.756 134.545 182.756 134.545 0 0 0"/>
  </defs>
  <g fill="none" fill-rule="evenodd">
    <g transform="translate(38 14)">
      <path stroke="#D5DBED" stroke-width="2" d="M50.0448,143.933 C53.9158,154.104 63.7578,161.331 75.2878,161.331 L89.2878,161.331 C104.1988,161.331 116.2878,149.243 116.2878,134.331 L116.2878,128.793 L50.0448,143.933 Z" stroke-linecap="round" stroke-linejoin="round"/>
      <path stroke="#D5DBED" stroke-width="2" d="M112.2875,121.7558 L112.2875,171.7558 C112.2875,177.2788 98.8555,181.7558 82.2875,181.7558 C65.7185,181.7558 52.2875,177.2788 52.2875,171.7558 L52.2875,144.5708" stroke-linecap="round" stroke-linejoin="round"/>
      <path stroke="#D5DBED" stroke-width="2" d="M67.7167 124.4003L73.8997 130.3583 73.8997 143.7983C73.8997 145.4483 75.2497 146.7983 76.8997 146.7983 78.5497 146.7983 79.8997 145.4483 79.8997 143.7983L79.8997 140.0063C79.8997 138.3563 81.2497 137.0063 82.8997 137.0063 84.5497 137.0063 85.8997 138.3563 85.8997 140.0063L85.8997 153.0433C85.8997 154.6933 87.2497 156.0433 88.8997 156.0433 90.5497 156.0433 91.8997 154.6933 91.8997 153.0433L91.8997 147.2513C91.8997 145.6013 93.2497 144.2513 94.8997 144.2513 96.5497 144.2513 97.8997 145.6013 97.8997 147.2513L97.8997 149.0433C97.8997 150.6933 99.2497 152.0433 100.8997 152.0433 102.5497 152.0433 103.8997 150.6933 103.8997 149.0433L103.8997 127.6913 99.7427 123.7213M106.8329 120.7563C105.4069 121.8793 101.7569 123.4823 96.0159 124.5683M117.7875 136.6074L112.2875 136.6074 112.2875 131.6074 117.7875 131.6074C119.1675 131.6074 120.2875 132.7274 120.2875 134.1074 120.2875 135.4884 119.1675 136.6074 117.7875 136.6074z" stroke-linecap="round" stroke-linejoin="round"/>
      <path stroke="#D5DBED" stroke-width="2" d="M64.7401 112.644C69.6751 111.456 75.7361 110.756 82.2871 110.756 98.8561 110.756 112.2871 115.233 112.2871 120.756 112.2871 125.446 102.6021 129.381 89.5361 130.462M82.2875 130.7558C71.4625 130.7558 61.9775 128.8448 56.7015 125.9798" stroke-linecap="round" stroke-linejoin="round"/>
      <path stroke="#D5DBED" stroke-width="2" d="M89.8842 125.4169C87.5702 125.6309 85.0362 125.7559 82.2872 125.7559 68.4682 125.7559 59.0902 122.6049 56.7412 120.7559M100.8998 170.7348L100.8998 170.7348C99.2498 170.7348 97.8998 169.3848 97.8998 167.7348L97.8998 166.6528C97.8998 164.9958 99.2428 163.6528 100.8998 163.6528 102.5568 163.6528 103.8998 164.9958 103.8998 166.6528L103.8998 167.7348C103.8998 169.3848 102.5498 170.7348 100.8998 170.7348z" stroke-linecap="round" stroke-linejoin="round"/>
      <path fill="#7289DA" d="M24.1937 84.7709L24.1937 84.0569C24.1937 81.6899 26.1127 79.7709 28.4797 79.7709 30.8467 79.7709 32.7647 81.6899 32.7647 84.0569L32.7647 84.7709C32.7647 87.1379 34.6837 89.0569 37.0507 89.0569 39.4177 89.0569 41.3367 87.1379 41.3367 84.7709L41.3367 84.0569C41.3367 81.6899 43.2557 79.7709 45.6227 79.7709 47.9887 79.7709 49.9077 81.6899 49.9077 84.0569L49.9077 84.7709C49.9077 87.1379 51.8267 89.0569 54.1937 89.0569 56.5607 89.0569 58.4797 87.1379 58.4797 84.7709L58.4797 84.0569C58.4797 81.6899 60.3987 79.7709 62.7647 79.7709 65.1317 79.7709 67.0507 81.6899 67.0507 84.0569L67.0507 84.7709C67.0507 87.1379 68.9697 89.0569 71.3367 89.0569 73.7037 89.0569 75.6227 87.1379 75.6227 84.7709L75.6227 84.0569 75.6227 45.8179 75.6227 45.1039C75.6227 42.7369 73.7037 40.8179 71.3367 40.8179 68.9697 40.8179 67.0507 42.7369 67.0507 45.1039L67.0507 45.8179C67.0507 48.1859 65.1317 50.1039 62.7647 50.1039 60.3987 50.1039 58.4797 48.1859 58.4797 45.8179L58.4797 28.2469C58.4797 25.8799 56.5607 23.9609 54.1937 23.9609 51.8267 23.9609 49.9077 25.8799 49.9077 28.2469L49.9077 30.8179C49.9077 33.1859 47.9887 35.1039 45.6227 35.1039 43.2557 35.1039 41.3367 33.1859 41.3367 30.8179L41.3367 19.5329C41.3367 17.1659 39.4177 15.2469 37.0507 15.2469 34.6837 15.2469 32.7647 17.1659 32.7647 19.5329L32.7647 36.5329C32.7647 38.8999 30.8467 40.8179 28.4797 40.8179 26.1127 40.8179 24.1937 38.8999 24.1937 36.5329L24.1937 34.3899C24.1937 32.0229 22.2747 30.1039 19.9077 30.1039 17.5407 30.1039 15.6227 32.0229 15.6227 34.3899L15.6227 84.7709C15.6227 87.1379 17.5407 89.0569 19.9077 89.0569 22.2747 89.0569 24.1937 87.1379 24.1937 84.7709M41.3368 5.7822L41.3368 4.4702C41.3368 2.2312 39.6998.2322 37.4718.0202 34.9158-.2238 32.7648 1.7802 32.7648 4.2852L32.7648 5.7822C32.7648 8.1492 34.6838 10.0682 37.0508 10.0682 39.4178 10.0682 41.3368 8.1492 41.3368 5.7822"/>
      <path fill="#7289DA" d="M75.6225,33.1157 L75.6225,32.8037 C75.6225,30.5647 73.9855,28.5657 71.7575,28.3537 C69.2015,28.1097 67.0505,30.1137 67.0505,32.6187 L67.0505,33.1157 C67.0505,35.4827 68.9695,37.4017 71.3365,37.4017 C73.7035,37.4017 75.6225,35.4827 75.6225,33.1157"/>
      <path fill="#F97373" d="M38.6225 143.5707C38.6225 145.2277 39.9655 146.5707 41.6225 146.5707L49.6225 146.5707C51.2795 146.5707 52.6225 145.2277 52.6225 143.5707L52.6225 141.1477 38.6225 141.1327 38.6225 143.5707zM52.6225 111.0786L52.6225 107.5786C52.6225 105.9286 51.2725 104.5786 49.6225 104.5786L41.6225 104.5786C39.9725 104.5786 38.6225 105.9286 38.6225 107.5786L38.6225 111.0786"/>
      <path fill="#F3F9FF" d="M73.4623,93.0859 L17.7823,93.0859 C13.8283,93.0859 10.6223,89.8799 10.6223,85.9259 L10.6223,76.2459 C10.6223,72.2919 13.8283,69.0859 17.7823,69.0859 L73.4623,69.0859 C77.4163,69.0859 80.6223,72.2919 80.6223,76.2459 L80.6223,85.9259 C80.6223,89.8799 77.4163,93.0859 73.4623,93.0859"/>
      <path fill="#7289DA" d="M73.4623,69.0859 L17.7823,69.0859 C13.8283,69.0859 10.6223,72.2919 10.6223,76.2459 L10.6223,76.2519 C10.6223,79.0589 12.2613,81.6119 14.8183,82.7699 C19.3503,84.8229 23.9233,86.6909 29.0223,85.7829 C34.5933,84.7909 40.2883,80.9609 46.0673,81.6139 C50.8753,82.1569 54.3203,85.5869 57.6503,88.6029 C59.0803,89.8979 60.1893,91.0419 61.6123,91.9909 C62.7333,92.7379 64.0733,93.0859 65.4193,93.0859 L73.4623,93.0859 C77.4173,93.0859 80.6223,89.8799 80.6223,85.9259 L80.6223,76.2459 C80.6223,72.2919 77.4173,69.0859 73.4623,69.0859"/>
      <mask id="b" fill="white">
        <use xlink:href="#a"/>
      </mask>
      <polygon fill="#7289DA" points="23.046 75.958 59.9 75.958 59.9 60.208 23.046 60.208" mask="url(#b)"/>
      <path stroke="#1E2126" stroke-width="2" d="M81.6225 80.7377L84.8255 80.7377C85.9305 80.7377 86.8255 81.6327 86.8255 82.7377L86.8255 84.3747C86.8255 85.4797 85.9305 86.3747 84.8255 86.3747L47.6225 86.3747C46.5175 86.3747 45.6225 87.2707 45.6225 88.3747L45.6225 103.3857M52.6225 141.1479L52.6225 143.5709C52.6225 145.2279 51.2795 146.5709 49.6225 146.5709L41.6225 146.5709C39.9655 146.5709 38.6225 145.2279 38.6225 143.5709L38.6225 141.8749M52.6225 110.0786L52.6225 107.5786C52.6225 105.9286 51.2725 104.5786 49.6225 104.5786L41.6225 104.5786C39.9725 104.5786 38.6225 105.9286 38.6225 107.5786L38.6225 110.0786" stroke-linecap="round" stroke-linejoin="round" mask="url(#b)"/>
      <path stroke="#1E2126" stroke-width="2" d="M10.9935,80.6523 C16.4225,85.2383 23.1815,86.7933 30.1155,85.4803 C36.1425,84.3383 42.9515,80.0833 49.3845,82.0393 C55.9125,84.0233 59.3305,92.8393 66.5975,93.0863" stroke-linecap="round" stroke-linejoin="round" mask="url(#b)"/>
      <path stroke="#1E2126" stroke-width="2" d="M49.6225 69.0859L73.4625 69.0859C77.4165 69.0859 80.6225 72.2919 80.6225 76.2459L80.6225 85.9259C80.6225 89.8799 77.4165 93.0859 73.4625 93.0859L17.7825 93.0859C13.8285 93.0859 10.6225 89.8799 10.6225 85.9259L10.6225 76.2459C10.6225 72.2919 13.8285 69.0859 17.7825 69.0859L29.5195 69.0859M44.2875 69.0859L45.6215 69.0859M38.6225 110.1323L38.6225 102.9953C38.6225 100.2443 36.3925 98.0153 33.6425 98.0153L33.6385 98.0153C30.8885 98.0153 28.6585 100.2443 28.6585 102.9953L28.6585 117.3643.9995 146.0233M54.0014 118.6323C56.0724 118.6323 57.7514 116.9533 57.7514 114.8823 57.7514 112.8113 56.0724 111.1323 54.0014 111.1323L48.2874 111.1323M54.0014 118.6323C56.0724 118.6323 57.7514 120.3113 57.7514 122.3823 57.7514 124.4533 56.0724 126.1323 54.0014 126.1323M54.0014 126.1323C56.0724 126.1323 57.7514 127.8113 57.7514 129.8823 57.7514 131.9533 56.0724 133.6323 54.0014 133.6323" stroke-linecap="round" stroke-linejoin="round" mask="url(#b)"/>
      <path stroke="#1E2126" stroke-width="2" d="M54.0014 133.6323C56.0724 133.6323 57.7514 135.3113 57.7514 137.3823 57.7514 139.4533 56.0724 141.1323 54.0014 141.1323L46.5014 141.1323 36.9384 141.1323 22.5364 155.5343M35.9896 111.1323L41.3366 111.1323M50.4418 118.6323L49.8008 118.6323M50.4418 126.1323L49.8008 126.1323M50.4418 133.6323L49.8008 133.6323" stroke-linecap="round" stroke-linejoin="round" mask="url(#b)"/>
      <path stroke="#D5DBED" stroke-width="2" d="M112.2875 171.7558L125.5035 171.7558M51.2875 171.7558L35.7655 171.7558M130.0707 171.7558L133.5457 171.7558" stroke-linecap="round" stroke-linejoin="round" mask="url(#b)"/>
    </g>
    <rect width="210" height="210"/>
  </g>
</svg>
