<svg xmlns="http://www.w3.org/2000/svg" width="24" height="24">
  <g fill="none" fill-rule="evenodd">
    <path fill="#FFF" d="M5.74647887 23.9807324v-2.8296338H.0145352c-.00574647-.1186479-.01419717-.2102535-.01419717-.3021972-.00067606-5.3242817-.0010141-10.6485634.00270422-15.97284506 0-.15380282.0273803-.3143662.0753803-.4607324.4225352-1.2851831.8558873-2.5669859 1.27605632-3.85284507.05543662-.1693521.12540845-.228169.30929578-.228169C8.67819718.3397183 15.6926197.33904224 22.7070423.33904224h.2352676V.636169c0 4.5887324-.0010141 9.1774648.0040563 13.7658592 0 .1916619-.0564507.323831-.1913239.4580281-2.0349296 2.027155-4.0661409 4.0580282-6.0929578 6.0932958-.1345352.1348733-.2663662.191324-.4580282.1899718-1.2348169-.0084507-2.4696338.0013522-3.7041126-.0094647-.2366198-.0020282-.4056338.0598309-.5739719.2318873-.8143098.8322253-1.6407887 1.6532958-2.46963377 2.4713239-.07876057.0777465-.2028169.1548169-.30625352.155831-1.10332393.0108169-2.20664787.0064225-3.31030984.0054085-.02433803 0-.04867606-.0087888-.09329578-.0175775zM3.5628169 2.46794366V17.579493h5.0362817v2.8641126c.07774647-.0740281.1213521-.1139155.1632676-.155831.84912676-.8470985 1.7006197-1.692169 2.5450141-2.544338.120338-.1216901.240676-.1710422.4117183-.1703662 1.7601127.0057465 3.5202253.0067606 5.28-.0033803.1294648-.000676.2900282-.0676056.3819718-.1585352 1.0972395-1.0820281 2.1823099-2.1765634 3.2768451-3.2616338.1223662-.1216901.1669859-.2430422.1666479-.4123943-.0040564-3.6689578-.0030423-7.33791553-.0030423-11.00687328v-.26230986H3.5628169zm7.8993803 4.35312676v6.38704228H9.33397183V6.82107042h2.12822537zm5.7258591 6.39549298h-2.0903662v-6.395831h2.0903662v6.395831z"/>
    <path d="M0 0h24v24H0z"/>
  </g>
</svg>