<svg xmlns="http://www.w3.org/2000/svg" width="408" height="122">
  <g fill="none" fill-rule="evenodd">
    <path stroke="#FFF" stroke-width="3" d="M37.1212 97.8707l-1.414 1.414m-5.6571 5.6571l-1.414 1.414m8.4851.0002l-1.414-1.414m-5.6571-5.6571l-1.414-1.414M207.9405 5.4998l-1.414 1.414m-5.6571 5.657l-1.414 1.414m8.4851.0003l-1.414-1.414m-5.6571-5.6571l-1.414-1.414m203.7617 70.4352l-1.414 1.414m-5.6571 5.657l-1.414 1.414m8.4851.0002l-1.414-1.414m-5.6571-5.657l-1.414-1.414M270.8276 12.5708c0 1.657-1.343 3-3 3s-3-1.343-3-3 1.343-3 3-3 3 1.343 3 3zm75.8794 77.9444v6m3-3h-6m-3-56.9444v6m3-3h-6m-234.0062-30v6m3-3h-6m-63.5796 1.5585l-1.414-1.414m-5.6571-5.6571l-1.414-1.414m8.4851-.0002l-1.414 1.414m-5.6571 5.6571l-1.414 1.414m129.5196 74.956l-1.414-1.414m-5.657-5.6571l-1.414-1.414m8.485-.0002l-1.414 1.414m-5.657 5.6571l-1.414 1.414m88.2698 27.4153l-1.414-1.414m-5.6571-5.657l-1.414-1.414m8.4851-.0003l-1.414 1.414m-5.6571 5.6571l-1.414 1.414M369.707 53.1969c0-1.657-1.343-3-3-3s-3 1.343-3 3 1.343 3 3 3 3-1.343 3-3zm-359.207 3c0-1.657-1.343-3-3-3s-3 1.343-3 3 1.343 3 3 3 3-1.343 3-3zm260.3276 43.2323c0-1.657-1.343-3-3-3s-3 1.343-3 3 1.343 3 3 3 3-1.343 3-3zm55.8794-87.9444v-6m3 3h-6M37.0501 48.2605v-6m3 3h-6M340.707 75.4292v-6m3 3h-6m-234.0062 30v-6m3 3h-6" opacity=".6" stroke-linecap="round" stroke-linejoin="round"/>
    <path d="M0 0h408v122H0z"/>
  </g>
</svg>